<svg width="5" height="9" viewBox="0 0 5 9" fill="none" xmlns="http://www.w3.org/2000/svg">
<path d="M2.904 0H3.096C3.288 0 3.476 0.0239999 3.66 0.0719998C3.844 0.112 4.008 0.188 4.152 0.3C4.296 0.404 4.412 0.548 4.5 0.732C4.588 0.916 4.632 1.152 4.632 1.44V5.472C4.632 5.752 4.592 5.992 4.512 6.192C4.432 6.384 4.324 6.544 4.188 6.672C4.06 6.8 3.908 6.896 3.732 6.96C3.564 7.016 3.384 7.044 3.192 7.044C3.144 7.044 3.096 7.044 3.048 7.044C3 7.036 2.952 7.028 2.904 7.02V0ZM1.38 5.352C1.196 5.352 1.02 5.32 0.852 5.256C0.692 5.184 0.548 5.084 0.42 4.956C0.292 4.82 0.188 4.656 0.108 4.464C0.036 4.264 0 4.032 0 3.768V0H0.252C0.74 0 1.108 0.132 1.356 0.396C1.604 0.652 1.728 1.072 1.728 1.656V3.36C1.728 3.456 1.732 3.548 1.74 3.636C1.756 3.724 1.78 3.804 1.812 3.876C1.852 3.94 1.904 3.996 1.968 4.044C2.04 4.084 2.136 4.104 2.256 4.104C2.32 4.104 2.384 4.096 2.448 4.08C2.52 4.056 2.584 4.02 2.64 3.972C2.64 4.156 2.616 4.332 2.568 4.5C2.52 4.66 2.444 4.804 2.34 4.932C2.236 5.06 2.104 5.164 1.944 5.244C1.784 5.316 1.596 5.352 1.38 5.352ZM0.9 7.572C0.9 7.324 0.944 7.124 1.032 6.972C1.12 6.812 1.228 6.688 1.356 6.6C1.492 6.512 1.632 6.456 1.776 6.432C1.928 6.4 2.06 6.384 2.172 6.384C2.228 6.384 2.284 6.388 2.34 6.396C2.404 6.396 2.444 6.4 2.46 6.408V6.96C2.46 7.128 2.5 7.252 2.58 7.332C2.66 7.412 2.76 7.452 2.88 7.452C3.024 7.452 3.152 7.404 3.264 7.308C3.288 7.372 3.3 7.432 3.3 7.488C3.308 7.536 3.312 7.592 3.312 7.656C3.312 7.752 3.288 7.864 3.24 7.992C3.2 8.112 3.132 8.228 3.036 8.34C2.948 8.444 2.828 8.536 2.676 8.616C2.532 8.688 2.356 8.724 2.148 8.724C1.932 8.724 1.744 8.688 1.584 8.616C1.432 8.544 1.304 8.456 1.2 8.352C1.104 8.24 1.028 8.116 0.972 7.98C0.924 7.844 0.9 7.708 0.9 7.572Z" fill="url(#paint0_linear_1_4)"/>
<defs>
<linearGradient id="paint0_linear_1_4" x1="2.316" y1="0" x2="2.316" y2="8.724" gradientUnits="userSpaceOnUse">
<stop stop-color="#0500FF" stop-opacity="0.8"/>
<stop offset="0.515625" stop-color="#6B0097" stop-opacity="0.4"/>
<stop offset="1" stop-color="#FF0000" stop-opacity="0.8"/>
</linearGradient>
</defs>
</svg>
